<svg width="20" height="20" viewBox="0 0 20 20" fill="none" xmlns="http://www.w3.org/2000/svg">
<path d="M2.85714 0C1.28125 0 0 1.28125 0 2.85714V17.1429C0 18.7188 1.28125 20 2.85714 20H7.24107V13.4911H4.88393V10H7.24107V8.49553C7.24107 4.60714 9 2.80357 12.8214 2.80357C13.5446 2.80357 14.7946 2.94643 15.308 3.08929V6.25C15.0402 6.22321 14.5714 6.20536 13.9866 6.20536C12.1116 6.20536 11.3884 6.91518 11.3884 8.75893V10H15.1205L14.4777 13.4911H11.3839V20H17.1429C18.7188 20 20 18.7188 20 17.1429V2.85714C20 1.28125 18.7188 0 17.1429 0H2.85714Z" fill="white"/>
</svg>
